<?xml version="1.0" encoding="utf-8"?><svg xmlns="http://www.w3.org/2000/svg" xmlns:xlink="http://www.w3.org/1999/xlink"><symbol fill="none" viewBox="0 0 200 35" id="logo" xmlns="http://www.w3.org/2000/svg"><path d="M0 27.1h18.631v-6.022H6.211V1.882H0V27.1ZM29.236 7.716c-5.797 0-9.862 4.328-9.862 9.974 0 5.27 3.312 9.975 9.749 9.975 4.479 0 8.355-2.296 9.56-6.587h-6.06c-.602.94-2.145 1.543-3.576 1.43-2.183-.188-3.425-1.468-3.801-2.898h13.55c.753-6.85-3.275-11.894-9.56-11.894Zm-.038 5.119c1.844 0 3.312.866 3.84 2.446H25.32c.527-1.505 1.995-2.446 3.877-2.446ZM54.784 10.577h-.15c-1.13-1.619-3.2-2.861-5.797-2.861-5.156 0-8.694 4.253-8.694 10.05 0 5.947 3.764 9.899 8.694 9.899 2.597 0 4.667-1.242 5.797-2.86h.15V27.1h5.797V8.28h-5.797v2.297Zm-4.366 11.592c-2.484 0-4.366-1.844-4.366-4.479 0-2.634 1.882-4.479 4.366-4.479 2.522 0 4.366 1.92 4.366 4.48 0 2.446-1.769 4.478-4.366 4.478ZM68.928 8.28c-3.613 0-6.436 2.372-6.436 5.797 0 2.56 1.995 4.517 4.78 5.119l6.85 1.468c.264.075.339.263.339.414 0 .188-.15.376-.414.376H63.282V27.1h10.803c3.613 0 6.511-2.409 6.511-5.872 0-2.672-1.92-4.667-4.818-5.231l-6.737-1.318c-.188-.037-.339-.226-.339-.376 0-.188.15-.377.414-.377h10.125V8.282H68.928ZM82.51 0v6.21h5.834V0H82.51Zm0 8.28V27.1h5.834V8.28H82.51ZM102.767 7.754c-2.107 0-4.102.94-5.344 2.672h-.151V8.281h-5.684V27.1h5.835v-9.938c0-2.333 1.806-3.65 3.538-3.65 1.543 0 3.161 1.053 3.161 3.462V27.1h5.834V16.185c0-5.495-2.71-8.431-7.189-8.431ZM126.35 10.577h-.151c-1.129-1.619-3.199-2.861-5.796-2.861-5.157 0-8.695 4.253-8.695 10.05 0 5.947 3.764 9.899 8.695 9.899 2.597 0 4.667-1.242 5.796-2.86h.151v2.747c0 .753-.565 1.204-1.355 1.204h-10.802v5.872h12.232c3.614 0 5.721-1.957 5.721-5.533V8.281h-5.796v2.296Zm-4.366 11.592c-2.484 0-4.366-1.844-4.366-4.479 0-2.634 1.882-4.479 4.366-4.479 2.522 0 4.366 1.92 4.366 4.48 0 2.446-1.769 4.478-4.366 4.478Z" fill="#FF9514"/><path d="M154.223 16.599c-.677 3.049-3.161 4.968-6.511 4.968-4.404 0-6.775-3.35-6.775-7.076 0-3.801 2.409-7 6.699-7.076 3.426-.075 5.722 1.92 6.437 4.705h6.436c-.715-6.06-5.684-10.803-12.797-10.803-7.98 0-13.099 5.947-13.099 13.25 0 7.226 5.119 13.098 13.099 13.098 7.302 0 12.232-4.78 12.872-11.066h-6.361ZM176.633 10.577h-.15c-1.129-1.619-3.199-2.861-5.796-2.861-5.157 0-8.695 4.253-8.695 10.05 0 5.947 3.764 9.899 8.695 9.899 2.597 0 4.667-1.242 5.796-2.86h.15V27.1h5.797V8.28h-5.797v2.297Zm-4.366 11.592c-2.484 0-4.366-1.844-4.366-4.479 0-2.634 1.882-4.479 4.366-4.479 2.522 0 4.366 1.92 4.366 4.48 0 2.446-1.769 4.478-4.366 4.478ZM195.323 8.28c-1.92 0-3.463 1.13-3.99 2.824h-.151V8.28h-5.532V27.1h5.834v-9.523c0-1.995 1.467-3.463 3.462-3.463h4.555V8.28h-4.178Z" fill="#111"/></symbol><symbol fill="none" viewBox="0 0 166 29" id="logo_phone" xmlns="http://www.w3.org/2000/svg"><path d="M0 22.55h15.503v-5.012H5.168V1.566H0v20.983ZM24.326 6.42c-4.823 0-8.205 3.602-8.205 8.3 0 4.384 2.756 8.3 8.111 8.3 3.727 0 6.953-1.911 7.955-5.482h-5.042c-.501.783-1.785 1.285-2.975 1.19-1.817-.156-2.85-1.22-3.164-2.411h11.275c.627-5.7-2.724-9.897-7.955-9.897Zm-.031 4.26c1.535 0 2.756.72 3.194 2.035h-6.42c.439-1.252 1.66-2.035 3.226-2.035ZM45.585 8.8h-.126c-.94-1.346-2.662-2.38-4.823-2.38-4.29 0-7.234 3.54-7.234 8.362 0 4.949 3.132 8.237 7.234 8.237 2.161 0 3.884-1.033 4.823-2.38h.126v1.91h4.823V6.89h-4.823V8.8Zm-3.633 9.647c-2.067 0-3.633-1.535-3.633-3.727 0-2.193 1.566-3.727 3.633-3.727 2.098 0 3.633 1.597 3.633 3.727 0 2.036-1.472 3.727-3.633 3.727ZM57.353 6.89c-3.006 0-5.355 1.973-5.355 4.823 0 2.13 1.66 3.758 3.977 4.26l5.7 1.22c.22.064.282.22.282.345 0 .157-.125.314-.344.314h-8.957v4.697h8.988c3.007 0 5.418-2.004 5.418-4.885 0-2.224-1.597-3.884-4.008-4.354l-5.607-1.096c-.156-.031-.281-.188-.281-.313 0-.156.125-.313.344-.313h8.425V6.89h-8.582ZM68.654 0v5.168h4.855V0h-4.855Zm0 6.89v15.66h4.855V6.89h-4.855ZM85.51 6.452c-1.753 0-3.413.783-4.447 2.223h-.125V6.89h-4.73v15.66h4.855V14.28c0-1.942 1.504-3.038 2.944-3.038 1.284 0 2.63.877 2.63 2.882v8.424h4.855v-9.082c0-4.572-2.255-7.015-5.982-7.015ZM105.133 8.8h-.125c-.94-1.346-2.662-2.38-4.823-2.38-4.291 0-7.235 3.54-7.235 8.362 0 4.949 3.132 8.237 7.235 8.237 2.161 0 3.883-1.033 4.823-2.38h.125v2.286c0 .627-.47 1.002-1.127 1.002h-8.989v4.886h10.179c3.006 0 4.76-1.628 4.76-4.604V6.89h-4.823V8.8Zm-3.633 9.647c-2.067 0-3.633-1.535-3.633-3.727 0-2.193 1.566-3.727 3.633-3.727 2.098 0 3.633 1.597 3.633 3.727 0 2.036-1.472 3.727-3.633 3.727Z" fill="#FF9514"/><path d="M128.326 13.812c-.564 2.536-2.631 4.134-5.419 4.134-3.664 0-5.637-2.788-5.637-5.888 0-3.163 2.004-5.826 5.575-5.888 2.85-.063 4.76 1.597 5.355 3.915h5.356c-.595-5.043-4.729-8.989-10.649-8.989-6.639 0-10.898 4.949-10.898 11.024 0 6.014 4.259 10.9 10.898 10.9 6.076 0 10.179-3.978 10.711-9.208h-5.292ZM146.973 8.8h-.126c-.939-1.346-2.662-2.38-4.823-2.38-4.29 0-7.234 3.54-7.234 8.362 0 4.949 3.132 8.237 7.234 8.237 2.161 0 3.884-1.033 4.823-2.38h.126v1.91h4.823V6.89h-4.823V8.8Zm-3.633 9.647c-2.067 0-3.633-1.535-3.633-3.727 0-2.193 1.566-3.727 3.633-3.727 2.098 0 3.633 1.597 3.633 3.727 0 2.036-1.472 3.727-3.633 3.727ZM162.524 6.89c-1.598 0-2.882.94-3.32 2.349h-.125V6.89h-4.604v15.66h4.854v-7.924c0-1.66 1.221-2.881 2.881-2.881H166V6.89h-3.476Z" fill="#fff"/></symbol><symbol viewBox="0 0 22 17" id="telegram" xmlns="http://www.w3.org/2000/svg"><path clip-rule="evenodd" d="m8.619 11.219 8.153 5.55c.93.472 1.602.228 1.833-.796l3.319-14.409c.34-1.255-.52-1.824-1.41-1.452L1.028 7.035c-1.33.492-1.322 1.176-.242 1.48l5 1.438 11.578-6.73c.547-.304 1.049-.14.637.196"/></symbol><symbol viewBox="0 0 20 20" id="whatsapp" xmlns="http://www.w3.org/2000/svg"><path d="M10 .8C4.927.8.8 4.927.8 10a9.19 9.19 0 0 0 1.185 4.516l-1.17 4.176a.4.4 0 0 0 .481.496l4.359-1.08A9.206 9.206 0 0 0 10 19.2c5.073 0 9.2-4.127 9.2-9.2 0-5.073-4.127-9.2-9.2-9.2Zm4.628 12.446c-.197.545-1.14 1.042-1.594 1.11-.408.059-.923.084-1.488-.093a13.816 13.816 0 0 1-1.347-.492c-2.369-1.01-3.916-3.366-4.034-3.521-.118-.156-.965-1.265-.965-2.412 0-1.148.61-1.712.827-1.946a.873.873 0 0 1 .63-.292c.158 0 .315.002.453.008.145.008.34-.054.531.4.197.468.67 1.616.728 1.733.06.117.098.253.02.409-.078.155-.118.252-.236.389-.118.136-.248.304-.354.409-.119.116-.242.242-.104.476.138.233.612.997 1.314 1.615.902.795 1.663 1.041 1.9 1.158.235.117.373.097.51-.059.138-.156.591-.68.748-.914.158-.233.315-.195.532-.117.217.078 1.378.642 1.614.759.236.116.393.175.453.272.059.097.059.564-.138 1.108Z"/></symbol></svg>